<svg xmlns="http://www.w3.org/2000/svg" xmlns:xlink="http://www.w3.org/1999/xlink" width="250" zoomAndPan="magnify" viewBox="0 0 187.5 44.999999" height="60" preserveAspectRatio="xMidYMid meet" version="1.0"><defs><g/><clipPath id="63443c8090"><path d="M 142.148438 9.65625 L 176.558594 9.65625 L 176.558594 35.089844 L 142.148438 35.089844 Z M 142.148438 9.65625 " clip-rule="nonzero"/></clipPath></defs><g clip-path="url(#63443c8090)"><path fill="#e53935" d="M 147.527344 9.65625 L 171.179688 9.65625 C 171.53125 9.65625 171.878906 9.691406 172.226562 9.757812 C 172.574219 9.828125 172.910156 9.925781 173.234375 10.058594 C 173.5625 10.191406 173.871094 10.355469 174.164062 10.550781 C 174.457031 10.742188 174.730469 10.960938 174.980469 11.207031 C 175.226562 11.453125 175.453125 11.722656 175.648438 12.011719 C 175.84375 12.300781 176.007812 12.605469 176.144531 12.925781 C 176.277344 13.25 176.382812 13.578125 176.449219 13.921875 C 176.519531 14.261719 176.554688 14.605469 176.554688 14.953125 L 176.554688 29.789062 C 176.554688 30.136719 176.519531 30.484375 176.449219 30.824219 C 176.382812 31.164062 176.277344 31.496094 176.144531 31.816406 C 176.007812 32.140625 175.84375 32.445312 175.648438 32.734375 C 175.453125 33.023438 175.226562 33.289062 174.980469 33.535156 C 174.730469 33.78125 174.457031 34.003906 174.164062 34.195312 C 173.871094 34.390625 173.5625 34.550781 173.234375 34.683594 C 172.910156 34.820312 172.574219 34.917969 172.226562 34.988281 C 171.878906 35.054688 171.53125 35.089844 171.179688 35.089844 L 147.527344 35.089844 C 147.175781 35.089844 146.824219 35.054688 146.480469 34.988281 C 146.132812 34.917969 145.796875 34.820312 145.472656 34.683594 C 145.144531 34.550781 144.835938 34.390625 144.542969 34.195312 C 144.25 34.003906 143.976562 33.78125 143.726562 33.535156 C 143.476562 33.289062 143.253906 33.023438 143.058594 32.734375 C 142.863281 32.445312 142.695312 32.140625 142.5625 31.816406 C 142.425781 31.496094 142.324219 31.164062 142.257812 30.824219 C 142.1875 30.484375 142.152344 30.136719 142.152344 29.789062 L 142.152344 14.953125 C 142.152344 14.605469 142.1875 14.261719 142.257812 13.921875 C 142.324219 13.578125 142.425781 13.25 142.5625 12.925781 C 142.695312 12.605469 142.863281 12.300781 143.058594 12.011719 C 143.253906 11.722656 143.476562 11.453125 143.726562 11.207031 C 143.976562 10.960938 144.25 10.742188 144.542969 10.550781 C 144.835938 10.355469 145.144531 10.191406 145.472656 10.058594 C 145.796875 9.925781 146.132812 9.828125 146.480469 9.757812 C 146.824219 9.691406 147.175781 9.65625 147.527344 9.65625 Z M 147.527344 9.65625 " fill-opacity="1" fill-rule="nonzero"/></g><path fill="#fafafa" d="M 165.210938 21.425781 L 154.460938 16.125 C 154.292969 16.042969 154.117188 16.007812 153.929688 16.015625 C 153.742188 16.023438 153.570312 16.074219 153.414062 16.171875 C 153.253906 16.269531 153.128906 16.398438 153.039062 16.558594 C 152.949219 16.71875 152.902344 16.890625 152.902344 17.074219 L 152.902344 27.671875 C 152.902344 27.855469 152.949219 28.027344 153.039062 28.1875 C 153.128906 28.347656 153.253906 28.476562 153.414062 28.574219 C 153.570312 28.667969 153.742188 28.722656 153.929688 28.730469 C 154.117188 28.738281 154.292969 28.699219 154.460938 28.617188 L 165.210938 23.320312 C 165.605469 23.125 165.804688 22.808594 165.804688 22.371094 C 165.804688 21.933594 165.605469 21.617188 165.210938 21.421875 Z M 165.210938 21.425781 " fill-opacity="1" fill-rule="nonzero"/><g fill="#000000" fill-opacity="1"><g transform="translate(10.408904, 28.735747)"><g><path d="M 1.1875 0 L 1.1875 -13.703125 L 6.59375 -13.703125 C 7.632812 -13.703125 8.519531 -13.503906 9.25 -13.109375 C 9.988281 -12.710938 10.550781 -12.164062 10.9375 -11.46875 C 11.320312 -10.769531 11.515625 -9.96875 11.515625 -9.0625 C 11.515625 -8.15625 11.316406 -7.351562 10.921875 -6.65625 C 10.523438 -5.957031 9.957031 -5.410156 9.21875 -5.015625 C 8.476562 -4.628906 7.582031 -4.4375 6.53125 -4.4375 L 4.09375 -4.4375 L 4.09375 0 Z M 4.09375 -6.765625 L 6.0625 -6.765625 C 6.882812 -6.765625 7.5 -6.976562 7.90625 -7.40625 C 8.320312 -7.832031 8.53125 -8.382812 8.53125 -9.0625 C 8.53125 -9.738281 8.320312 -10.285156 7.90625 -10.703125 C 7.5 -11.117188 6.878906 -11.328125 6.046875 -11.328125 L 4.09375 -11.328125 Z M 4.09375 -6.765625 "/></g></g></g><g fill="#000000" fill-opacity="1"><g transform="translate(22.195477, 28.735747)"><g><path d="M 7.734375 -4.375 L 7.734375 -10.28125 L 10.578125 -10.28125 L 10.578125 0 L 7.84375 0 L 7.84375 -1.859375 L 7.734375 -1.859375 C 7.503906 -1.265625 7.117188 -0.78125 6.578125 -0.40625 C 6.046875 -0.0390625 5.394531 0.140625 4.625 0.140625 C 3.582031 0.140625 2.738281 -0.203125 2.09375 -0.890625 C 1.457031 -1.585938 1.140625 -2.535156 1.140625 -3.734375 L 1.140625 -10.28125 L 3.984375 -10.28125 L 3.984375 -4.25 C 3.992188 -3.632812 4.15625 -3.148438 4.46875 -2.796875 C 4.789062 -2.453125 5.222656 -2.28125 5.765625 -2.28125 C 6.273438 -2.28125 6.726562 -2.457031 7.125 -2.8125 C 7.53125 -3.164062 7.734375 -3.6875 7.734375 -4.375 Z M 7.734375 -4.375 "/></g></g></g><g fill="#000000" fill-opacity="1"><g transform="translate(33.493728, 28.735747)"><g><path d="M 1.140625 3.859375 L 1.140625 -10.28125 L 3.953125 -10.28125 L 3.953125 -8.546875 L 4.078125 -8.546875 C 4.203125 -8.828125 4.382812 -9.109375 4.625 -9.390625 C 4.863281 -9.679688 5.175781 -9.921875 5.5625 -10.109375 C 5.945312 -10.304688 6.425781 -10.40625 7 -10.40625 C 7.75 -10.40625 8.4375 -10.207031 9.0625 -9.8125 C 9.695312 -9.425781 10.203125 -8.84375 10.578125 -8.0625 C 10.960938 -7.28125 11.15625 -6.300781 11.15625 -5.125 C 11.15625 -3.976562 10.96875 -3.007812 10.59375 -2.21875 C 10.226562 -1.4375 9.726562 -0.84375 9.09375 -0.4375 C 8.46875 -0.03125 7.769531 0.171875 7 0.171875 C 6.4375 0.171875 5.960938 0.0820312 5.578125 -0.09375 C 5.191406 -0.28125 4.878906 -0.515625 4.640625 -0.796875 C 4.398438 -1.078125 4.210938 -1.359375 4.078125 -1.640625 L 3.984375 -1.640625 L 3.984375 3.859375 Z M 3.921875 -5.140625 C 3.921875 -4.222656 4.109375 -3.484375 4.484375 -2.921875 C 4.867188 -2.367188 5.40625 -2.09375 6.09375 -2.09375 C 6.789062 -2.09375 7.320312 -2.375 7.6875 -2.9375 C 8.0625 -3.507812 8.25 -4.242188 8.25 -5.140625 C 8.25 -6.035156 8.0625 -6.757812 7.6875 -7.3125 C 7.320312 -7.863281 6.789062 -8.140625 6.09375 -8.140625 C 5.394531 -8.140625 4.859375 -7.867188 4.484375 -7.328125 C 4.109375 -6.785156 3.921875 -6.054688 3.921875 -5.140625 Z M 3.921875 -5.140625 "/></g></g></g><g fill="#000000" fill-opacity="1"><g transform="translate(44.992657, 28.735747)"><g><path d="M 7.734375 -4.375 L 7.734375 -10.28125 L 10.578125 -10.28125 L 10.578125 0 L 7.84375 0 L 7.84375 -1.859375 L 7.734375 -1.859375 C 7.503906 -1.265625 7.117188 -0.78125 6.578125 -0.40625 C 6.046875 -0.0390625 5.394531 0.140625 4.625 0.140625 C 3.582031 0.140625 2.738281 -0.203125 2.09375 -0.890625 C 1.457031 -1.585938 1.140625 -2.535156 1.140625 -3.734375 L 1.140625 -10.28125 L 3.984375 -10.28125 L 3.984375 -4.25 C 3.992188 -3.632812 4.15625 -3.148438 4.46875 -2.796875 C 4.789062 -2.453125 5.222656 -2.28125 5.765625 -2.28125 C 6.273438 -2.28125 6.726562 -2.457031 7.125 -2.8125 C 7.53125 -3.164062 7.734375 -3.6875 7.734375 -4.375 Z M 7.734375 -4.375 "/></g></g></g><g fill="#000000" fill-opacity="1"><g transform="translate(56.290907, 28.735747)"><g><path d="M 3.984375 -5.9375 L 3.984375 0 L 1.140625 0 L 1.140625 -10.28125 L 3.859375 -10.28125 L 3.859375 -8.46875 L 3.96875 -8.46875 C 4.207031 -9.0625 4.59375 -9.53125 5.125 -9.875 C 5.65625 -10.226562 6.300781 -10.40625 7.0625 -10.40625 C 8.132812 -10.40625 8.992188 -10.0625 9.640625 -9.375 C 10.285156 -8.6875 10.609375 -7.742188 10.609375 -6.546875 L 10.609375 0 L 7.765625 0 L 7.765625 -6.03125 C 7.765625 -6.664062 7.601562 -7.160156 7.28125 -7.515625 C 6.957031 -7.867188 6.507812 -8.046875 5.9375 -8.046875 C 5.363281 -8.046875 4.894531 -7.859375 4.53125 -7.484375 C 4.175781 -7.117188 3.992188 -6.601562 3.984375 -5.9375 Z M 3.984375 -5.9375 "/></g></g></g><g fill="#000000" fill-opacity="1"><g transform="translate(67.589157, 28.735747)"><g><path d="M 3.984375 -5.9375 L 3.984375 0 L 1.140625 0 L 1.140625 -13.703125 L 3.90625 -13.703125 L 3.90625 -8.46875 L 4.03125 -8.46875 C 4.269531 -9.070312 4.644531 -9.546875 5.15625 -9.890625 C 5.664062 -10.234375 6.3125 -10.40625 7.09375 -10.40625 C 8.164062 -10.40625 9.023438 -10.0625 9.671875 -9.375 C 10.328125 -8.6875 10.65625 -7.742188 10.65625 -6.546875 L 10.65625 0 L 7.796875 0 L 7.796875 -6.03125 C 7.804688 -6.664062 7.648438 -7.160156 7.328125 -7.515625 C 7.003906 -7.867188 6.550781 -8.046875 5.96875 -8.046875 C 5.382812 -8.046875 4.910156 -7.859375 4.546875 -7.484375 C 4.179688 -7.117188 3.992188 -6.601562 3.984375 -5.9375 Z M 3.984375 -5.9375 "/></g></g></g><g fill="#000000" fill-opacity="1"><g transform="translate(78.934236, 28.735747)"><g><path d="M 4.0625 0.1875 C 3.082031 0.1875 2.269531 -0.0664062 1.625 -0.578125 C 0.976562 -1.085938 0.65625 -1.851562 0.65625 -2.875 C 0.65625 -3.632812 0.832031 -4.234375 1.1875 -4.671875 C 1.550781 -5.109375 2.023438 -5.425781 2.609375 -5.625 C 3.203125 -5.832031 3.835938 -5.96875 4.515625 -6.03125 C 5.410156 -6.125 6.046875 -6.21875 6.421875 -6.3125 C 6.804688 -6.414062 7 -6.628906 7 -6.953125 L 7 -7 C 7 -7.425781 6.863281 -7.753906 6.59375 -7.984375 C 6.332031 -8.210938 5.960938 -8.328125 5.484375 -8.328125 C 4.972656 -8.328125 4.5625 -8.210938 4.25 -7.984375 C 3.945312 -7.765625 3.75 -7.484375 3.65625 -7.140625 L 1.015625 -7.359375 C 1.210938 -8.296875 1.695312 -9.035156 2.46875 -9.578125 C 3.25 -10.128906 4.257812 -10.40625 5.5 -10.40625 C 6.257812 -10.40625 6.96875 -10.285156 7.625 -10.046875 C 8.289062 -9.804688 8.828125 -9.429688 9.234375 -8.921875 C 9.648438 -8.410156 9.859375 -7.75 9.859375 -6.9375 L 9.859375 0 L 7.15625 0 L 7.15625 -1.421875 L 7.078125 -1.421875 C 6.828125 -0.941406 6.453125 -0.550781 5.953125 -0.25 C 5.453125 0.0390625 4.820312 0.1875 4.0625 0.1875 Z M 4.890625 -1.765625 C 5.515625 -1.765625 6.023438 -1.945312 6.421875 -2.3125 C 6.828125 -2.675781 7.03125 -3.128906 7.03125 -3.671875 L 7.03125 -4.765625 C 6.914062 -4.691406 6.738281 -4.625 6.5 -4.5625 C 6.269531 -4.507812 6.019531 -4.457031 5.75 -4.40625 C 5.488281 -4.363281 5.253906 -4.328125 5.046875 -4.296875 C 4.546875 -4.234375 4.140625 -4.09375 3.828125 -3.875 C 3.523438 -3.664062 3.375 -3.363281 3.375 -2.96875 C 3.375 -2.570312 3.515625 -2.269531 3.796875 -2.0625 C 4.085938 -1.863281 4.453125 -1.765625 4.890625 -1.765625 Z M 4.890625 -1.765625 "/></g></g></g><g fill="#000000" fill-opacity="1"><g transform="translate(89.449849, 28.735747)"><g><path d="M 0.671875 -11.3125 L 0.671875 -13.703125 L 11.921875 -13.703125 L 11.921875 -11.3125 L 7.734375 -11.3125 L 7.734375 0 L 4.859375 0 L 4.859375 -11.3125 Z M 0.671875 -11.3125 "/></g></g></g><g fill="#000000" fill-opacity="1"><g transform="translate(101.624396, 28.735747)"><g><path d="M 7.734375 -4.375 L 7.734375 -10.28125 L 10.578125 -10.28125 L 10.578125 0 L 7.84375 0 L 7.84375 -1.859375 L 7.734375 -1.859375 C 7.503906 -1.265625 7.117188 -0.78125 6.578125 -0.40625 C 6.046875 -0.0390625 5.394531 0.140625 4.625 0.140625 C 3.582031 0.140625 2.738281 -0.203125 2.09375 -0.890625 C 1.457031 -1.585938 1.140625 -2.535156 1.140625 -3.734375 L 1.140625 -10.28125 L 3.984375 -10.28125 L 3.984375 -4.25 C 3.992188 -3.632812 4.15625 -3.148438 4.46875 -2.796875 C 4.789062 -2.453125 5.222656 -2.28125 5.765625 -2.28125 C 6.273438 -2.28125 6.726562 -2.457031 7.125 -2.8125 C 7.53125 -3.164062 7.734375 -3.6875 7.734375 -4.375 Z M 7.734375 -4.375 "/></g></g></g><g fill="#000000" fill-opacity="1"><g transform="translate(112.922649, 28.735747)"><g><path d="M 1.1875 0 L 1.1875 -13.703125 L 4.046875 -13.703125 L 4.046875 -8.546875 L 4.125 -8.546875 C 4.257812 -8.828125 4.441406 -9.109375 4.671875 -9.390625 C 4.910156 -9.679688 5.222656 -9.921875 5.609375 -10.109375 C 6.003906 -10.304688 6.484375 -10.40625 7.046875 -10.40625 C 7.804688 -10.40625 8.5 -10.207031 9.125 -9.8125 C 9.757812 -9.425781 10.265625 -8.84375 10.640625 -8.0625 C 11.023438 -7.28125 11.21875 -6.300781 11.21875 -5.125 C 11.21875 -3.976562 11.03125 -3.007812 10.65625 -2.21875 C 10.289062 -1.4375 9.789062 -0.84375 9.15625 -0.4375 C 8.53125 -0.03125 7.828125 0.171875 7.046875 0.171875 C 6.492188 0.171875 6.023438 0.0820312 5.640625 -0.09375 C 5.253906 -0.28125 4.9375 -0.515625 4.6875 -0.796875 C 4.445312 -1.078125 4.257812 -1.359375 4.125 -1.640625 L 4 -1.640625 L 4 0 Z M 3.984375 -5.140625 C 3.984375 -4.222656 4.171875 -3.484375 4.546875 -2.921875 C 4.921875 -2.367188 5.453125 -2.09375 6.140625 -2.09375 C 6.835938 -2.09375 7.367188 -2.375 7.734375 -2.9375 C 8.109375 -3.507812 8.296875 -4.242188 8.296875 -5.140625 C 8.296875 -6.035156 8.113281 -6.757812 7.75 -7.3125 C 7.382812 -7.863281 6.847656 -8.140625 6.140625 -8.140625 C 5.453125 -8.140625 4.921875 -7.867188 4.546875 -7.328125 C 4.171875 -6.785156 3.984375 -6.054688 3.984375 -5.140625 Z M 3.984375 -5.140625 "/></g></g></g><g fill="#000000" fill-opacity="1"><g transform="translate(124.475092, 28.735747)"><g><path d="M 5.828125 0.203125 C 4.773438 0.203125 3.863281 -0.0078125 3.09375 -0.4375 C 2.332031 -0.875 1.742188 -1.488281 1.328125 -2.28125 C 0.921875 -3.070312 0.71875 -4.007812 0.71875 -5.09375 C 0.71875 -6.144531 0.921875 -7.070312 1.328125 -7.875 C 1.742188 -8.675781 2.328125 -9.296875 3.078125 -9.734375 C 3.828125 -10.179688 4.703125 -10.40625 5.703125 -10.40625 C 6.609375 -10.40625 7.425781 -10.210938 8.15625 -9.828125 C 8.882812 -9.453125 9.460938 -8.875 9.890625 -8.09375 C 10.328125 -7.320312 10.546875 -6.351562 10.546875 -5.1875 L 10.546875 -4.40625 L 3.546875 -4.40625 C 3.546875 -3.632812 3.753906 -3.023438 4.171875 -2.578125 C 4.585938 -2.140625 5.15625 -1.921875 5.875 -1.921875 C 6.34375 -1.921875 6.75 -2.019531 7.09375 -2.21875 C 7.445312 -2.425781 7.695312 -2.726562 7.84375 -3.125 L 10.484375 -2.9375 C 10.273438 -1.988281 9.765625 -1.226562 8.953125 -0.65625 C 8.140625 -0.0820312 7.097656 0.203125 5.828125 0.203125 Z M 3.546875 -6.171875 L 7.859375 -6.171875 C 7.847656 -6.785156 7.648438 -7.289062 7.265625 -7.6875 C 6.878906 -8.082031 6.375 -8.28125 5.75 -8.28125 C 5.113281 -8.28125 4.59375 -8.070312 4.1875 -7.65625 C 3.789062 -7.25 3.578125 -6.753906 3.546875 -6.171875 Z M 3.546875 -6.171875 "/></g></g></g></svg>